<mxfile host="app.diagrams.net" agent="Mozilla/5.0 (Windows NT 10.0; Win64; x64) AppleWebKit/537.36 (KHTML, like Gecko) Chrome/129.0.0.0 Safari/537.36" version="24.7.17">
  <diagram id="Ht1M8jgEwFfnCIfOTk4-" name="Page-1">
    <mxGraphModel dx="800" dy="310" grid="1" gridSize="10" guides="1" tooltips="1" connect="1" arrows="1" fold="1" page="1" pageScale="1" pageWidth="1169" pageHeight="827" math="0" shadow="0">
      <root>
        <mxCell id="0" />
        <mxCell id="1" parent="0" />
        <mxCell id="UEzPUAAOIrF-is8g5C7q-74" value="AWS Cloud" style="points=[[0,0],[0.25,0],[0.5,0],[0.75,0],[1,0],[1,0.25],[1,0.5],[1,0.75],[1,1],[0.75,1],[0.5,1],[0.25,1],[0,1],[0,0.75],[0,0.5],[0,0.25]];outlineConnect=0;gradientColor=none;html=1;whiteSpace=wrap;fontSize=12;fontStyle=0;shape=mxgraph.aws4.group;grIcon=mxgraph.aws4.group_aws_cloud_alt;strokeColor=#232F3E;fillColor=none;verticalAlign=top;align=left;spacingLeft=30;fontColor=#232F3E;dashed=0;labelBackgroundColor=#ffffff;container=1;pointerEvents=0;collapsible=0;recursiveResize=0;" parent="1" vertex="1">
          <mxGeometry x="300" y="220" width="810" height="510" as="geometry" />
        </mxCell>
        <mxCell id="AfON42eSAfSAIptXPATr-3" value="" style="sketch=0;aspect=fixed;pointerEvents=1;shadow=0;dashed=0;html=1;strokeColor=none;labelPosition=center;verticalLabelPosition=bottom;verticalAlign=top;align=center;shape=mxgraph.mscae.enterprise.website_generic;fillColor=#7D7D7D;" vertex="1" parent="UEzPUAAOIrF-is8g5C7q-74">
          <mxGeometry x="120" y="236.8" width="140" height="123.2" as="geometry" />
        </mxCell>
        <mxCell id="AfON42eSAfSAIptXPATr-5" value="" style="sketch=0;outlineConnect=0;fontColor=#232F3E;gradientColor=none;fillColor=#7AA116;strokeColor=none;dashed=0;verticalLabelPosition=bottom;verticalAlign=top;align=center;html=1;fontSize=12;fontStyle=0;aspect=fixed;pointerEvents=1;shape=mxgraph.aws4.bucket_with_objects;" vertex="1" parent="UEzPUAAOIrF-is8g5C7q-74">
          <mxGeometry x="740" y="262.5" width="53.85" height="56" as="geometry" />
        </mxCell>
        <mxCell id="AfON42eSAfSAIptXPATr-6" value="" style="outlineConnect=0;dashed=0;verticalLabelPosition=bottom;verticalAlign=top;align=center;html=1;shape=mxgraph.aws3.cloudfront;fillColor=#F58536;gradientColor=none;" vertex="1" parent="UEzPUAAOIrF-is8g5C7q-74">
          <mxGeometry x="567" y="260" width="60" height="61" as="geometry" />
        </mxCell>
        <mxCell id="AfON42eSAfSAIptXPATr-7" value="" style="sketch=0;points=[[0,0,0],[0.25,0,0],[0.5,0,0],[0.75,0,0],[1,0,0],[0,1,0],[0.25,1,0],[0.5,1,0],[0.75,1,0],[1,1,0],[0,0.25,0],[0,0.5,0],[0,0.75,0],[1,0.25,0],[1,0.5,0],[1,0.75,0]];outlineConnect=0;fontColor=#232F3E;fillColor=#8C4FFF;strokeColor=#ffffff;dashed=0;verticalLabelPosition=bottom;verticalAlign=top;align=center;html=1;fontSize=12;fontStyle=0;aspect=fixed;shape=mxgraph.aws4.resourceIcon;resIcon=mxgraph.aws4.route_53;" vertex="1" parent="UEzPUAAOIrF-is8g5C7q-74">
          <mxGeometry x="400" y="260" width="57.5" height="57.5" as="geometry" />
        </mxCell>
        <mxCell id="AfON42eSAfSAIptXPATr-8" value="Amazon DynamoDB" style="sketch=0;outlineConnect=0;fontColor=#232F3E;gradientColor=none;strokeColor=#ffffff;fillColor=#232F3E;dashed=0;verticalLabelPosition=middle;verticalAlign=bottom;align=center;html=1;whiteSpace=wrap;fontSize=10;fontStyle=1;spacing=3;shape=mxgraph.aws4.productIcon;prIcon=mxgraph.aws4.dynamodb;" vertex="1" parent="UEzPUAAOIrF-is8g5C7q-74">
          <mxGeometry x="390" y="60" width="60" height="94" as="geometry" />
        </mxCell>
        <mxCell id="AfON42eSAfSAIptXPATr-9" value="" style="sketch=0;points=[[0,0,0],[0.25,0,0],[0.5,0,0],[0.75,0,0],[1,0,0],[0,1,0],[0.25,1,0],[0.5,1,0],[0.75,1,0],[1,1,0],[0,0.25,0],[0,0.5,0],[0,0.75,0],[1,0.25,0],[1,0.5,0],[1,0.75,0]];outlineConnect=0;fontColor=#232F3E;fillColor=#ED7100;strokeColor=#ffffff;dashed=0;verticalLabelPosition=bottom;verticalAlign=top;align=center;html=1;fontSize=12;fontStyle=0;aspect=fixed;shape=mxgraph.aws4.resourceIcon;resIcon=mxgraph.aws4.lambda;" vertex="1" parent="UEzPUAAOIrF-is8g5C7q-74">
          <mxGeometry x="130" y="60" width="60" height="60" as="geometry" />
        </mxCell>
        <mxCell id="AfON42eSAfSAIptXPATr-11" value="Route 53" style="text;html=1;align=center;verticalAlign=middle;resizable=0;points=[];autosize=1;strokeColor=none;fillColor=none;" vertex="1" parent="UEzPUAAOIrF-is8g5C7q-74">
          <mxGeometry x="393.75" y="330" width="70" height="30" as="geometry" />
        </mxCell>
        <mxCell id="AfON42eSAfSAIptXPATr-13" value="S3 bucket" style="text;html=1;align=center;verticalAlign=middle;resizable=0;points=[];autosize=1;strokeColor=none;fillColor=none;" vertex="1" parent="UEzPUAAOIrF-is8g5C7q-74">
          <mxGeometry x="713.8499999999999" y="330" width="80" height="30" as="geometry" />
        </mxCell>
        <mxCell id="AfON42eSAfSAIptXPATr-12" value="CloudFront" style="text;html=1;align=center;verticalAlign=middle;resizable=0;points=[];autosize=1;strokeColor=none;fillColor=none;" vertex="1" parent="UEzPUAAOIrF-is8g5C7q-74">
          <mxGeometry x="557" y="330" width="80" height="30" as="geometry" />
        </mxCell>
        <mxCell id="AfON42eSAfSAIptXPATr-14" value="Lambda" style="text;html=1;align=center;verticalAlign=middle;resizable=0;points=[];autosize=1;strokeColor=none;fillColor=none;" vertex="1" parent="UEzPUAAOIrF-is8g5C7q-74">
          <mxGeometry x="125" y="124" width="70" height="30" as="geometry" />
        </mxCell>
        <mxCell id="AfON42eSAfSAIptXPATr-16" value="" style="endArrow=classic;html=1;rounded=0;curved=0;targetPerimeterSpacing=0;endSize=9;" edge="1" parent="UEzPUAAOIrF-is8g5C7q-74">
          <mxGeometry width="50" height="50" relative="1" as="geometry">
            <mxPoint x="-90" y="288.78" as="sourcePoint" />
            <mxPoint x="80" y="288.32" as="targetPoint" />
          </mxGeometry>
        </mxCell>
        <mxCell id="AfON42eSAfSAIptXPATr-19" value="" style="endArrow=classic;html=1;rounded=0;curved=0;targetPerimeterSpacing=0;endSize=9;" edge="1" parent="UEzPUAAOIrF-is8g5C7q-74">
          <mxGeometry width="50" height="50" relative="1" as="geometry">
            <mxPoint x="480" y="290" as="sourcePoint" />
            <mxPoint x="551.25" y="290.28999999999996" as="targetPoint" />
          </mxGeometry>
        </mxCell>
        <mxCell id="AfON42eSAfSAIptXPATr-20" value="" style="endArrow=classic;html=1;rounded=0;curved=0;targetPerimeterSpacing=0;endSize=9;" edge="1" parent="UEzPUAAOIrF-is8g5C7q-74">
          <mxGeometry width="50" height="50" relative="1" as="geometry">
            <mxPoint x="290" y="288.39" as="sourcePoint" />
            <mxPoint x="361.25" y="288.67999999999995" as="targetPoint" />
          </mxGeometry>
        </mxCell>
        <mxCell id="AfON42eSAfSAIptXPATr-21" value="" style="endArrow=classic;html=1;rounded=0;curved=0;targetPerimeterSpacing=0;endSize=9;" edge="1" parent="UEzPUAAOIrF-is8g5C7q-74">
          <mxGeometry width="50" height="50" relative="1" as="geometry">
            <mxPoint x="650" y="290.14" as="sourcePoint" />
            <mxPoint x="721.25" y="290.42999999999995" as="targetPoint" />
          </mxGeometry>
        </mxCell>
        <mxCell id="AfON42eSAfSAIptXPATr-22" value="" style="endArrow=classic;html=1;rounded=0;curved=0;targetPerimeterSpacing=0;endSize=9;" edge="1" parent="UEzPUAAOIrF-is8g5C7q-74">
          <mxGeometry width="50" height="50" relative="1" as="geometry">
            <mxPoint x="250" y="70" as="sourcePoint" />
            <mxPoint x="321.25" y="70.28999999999996" as="targetPoint" />
          </mxGeometry>
        </mxCell>
        <mxCell id="AfON42eSAfSAIptXPATr-23" value="" style="endArrow=classic;html=1;rounded=0;curved=0;targetPerimeterSpacing=0;endSize=9;" edge="1" parent="UEzPUAAOIrF-is8g5C7q-74">
          <mxGeometry width="50" height="50" relative="1" as="geometry">
            <mxPoint x="249" y="89.63999999999999" as="sourcePoint" />
            <mxPoint x="320.25" y="89.92999999999995" as="targetPoint" />
          </mxGeometry>
        </mxCell>
        <mxCell id="AfON42eSAfSAIptXPATr-1" value="&lt;font style=&quot;font-size: 27px;&quot;&gt;AWS serverless Web Application&amp;nbsp;&lt;/font&gt;" style="text;html=1;align=center;verticalAlign=middle;whiteSpace=wrap;rounded=0;" vertex="1" parent="1">
          <mxGeometry x="280" y="40" width="480" height="60" as="geometry" />
        </mxCell>
        <mxCell id="AfON42eSAfSAIptXPATr-2" value="" style="sketch=0;outlineConnect=0;fontColor=#232F3E;gradientColor=none;fillColor=#232F3D;strokeColor=none;dashed=0;verticalLabelPosition=bottom;verticalAlign=top;align=center;html=1;fontSize=12;fontStyle=0;aspect=fixed;pointerEvents=1;shape=mxgraph.aws4.users;" vertex="1" parent="1">
          <mxGeometry x="110" y="460" width="78" height="78" as="geometry" />
        </mxCell>
        <mxCell id="AfON42eSAfSAIptXPATr-15" value="Website" style="text;html=1;align=center;verticalAlign=middle;resizable=0;points=[];autosize=1;strokeColor=none;fillColor=none;" vertex="1" parent="1">
          <mxGeometry x="445" y="588" width="70" height="30" as="geometry" />
        </mxCell>
      </root>
    </mxGraphModel>
  </diagram>
</mxfile>
